<svg id="drawing" xmlns="http://www.w3.org/2000/svg" xmlns:xlink="http://www.w3.org/1999/xlink" viewBox="0 0 1920.04 454.49">
	<g opacity="0.9" style="isolation:isolate">
		<path id="path1" d="M0,446.05s332.76-.15,385.31-7.41,65.64-84.92,68-98.06,4-28.88,31.25-51.74, M482.94,251.65s25.5-17.4,40.89-25.14L548,215.86c8.93-5.74,17.86-14.36,28.58-29.68s33.51-48,56.73-55.64S669.46,97.6,690.9,96.65s53.59,4.78,69.67,0,30.37-25.85,33.94-33.51,37.36-24.68,64.31-25.85c76.81-3.35,141.13,14.52,153.62,14.84,37.51,1,53.36-8.11,71.45-10.53,21.44-2.88,35.73-8.62,50-8.62s53.59,19.14,78.6,21.06,54.29,17.24,60.73,17.24c16.08,0,32.16-2.88,51.81,1s23.22,8.14,39.29,8.14,32.15-1,46.45,5.75,25,.95,33.94-4.79,21.43-31.6,55.37-32.55,73.24-13.41,84-19.15,39.29-3.82,51.81,1,9.56,20.34,19.64,22.5c17.86,3.83,53.81,14.85,63.4,20.12,0,0,23.13,7.11,26.76,106.79l2.28,28.74,3.11,26.93,3.66,33.56,4.24,33.28,4.62,31.34,3.69,21.66,4.39,22.19,4.29,17.92,3.42,11.67s5.82,20.2,14.05,22.83h0a112.06,112.06,0,0,0,37,6.68c20.77.16,4.61,2.26,89.66,1.59h0v7.66" fill="none" stroke="#f2a120" stroke-miterlimit="10" />
	</g>
</svg>
