<svg xmlns="http://www.w3.org/2000/svg" xmlns:xlink="http://www.w3.org/1999/xlink" viewBox="0 0 1920.04 454.49"><defs><clipPath id="clip-path"><rect x="203.46" y="26.09" width="1716.58" height="562.17" fill="none"/></clipPath><clipPath id="clip-path-2"><polygon points="203.46 582.59 1920.26 585.14 1920.26 -20.23 203.46 -22.78 203.46 582.59" fill="none"/></clipPath><clipPath id="clip-path-3"><polyline points="1920.04 9.89 203.46 9.89 203.46 584.21 1920.04 584.21" fill="none"/></clipPath></defs><title>ExpandedView_Center_Graph_with_Outlines</title><g id="Expanded_Center_Center_Graph_Lines"><path d="M0,436.88s324.19,7.36,376-8,61.16-95.15,62.35-110c1.22-15.24,10.73-79.25,46.19-94.23" fill="none" stroke="#3899e8" stroke-miterlimit="10" stroke-width="5" opacity="0.5"/><path d="M0,446.05s332.76-.15,385.31-7.41,65.64-84.92,68-98.06,4-28.88,31.25-51.74" fill="none" stroke="#f2a120" stroke-miterlimit="10" stroke-width="5" opacity="0.5"/><g opacity="0.24" style="isolation:isolate"><g clip-path="url(#clip-path)"><path d="M482.94,251.65s25.5-17.4,40.89-25.14L548,215.86c8.93-5.74,17.86-14.36,28.58-29.68s33.51-48,56.73-55.64S669.46,97.6,690.9,96.65s53.59,4.78,69.67,0,30.37-25.85,33.94-33.51,37.36-24.68,64.31-25.85c76.81-3.35,141.13,14.52,153.62,14.84,37.51,1,53.36-8.11,71.45-10.53,21.44-2.88,35.73-8.62,50-8.62s53.59,19.14,78.6,21.06,54.29,17.24,60.73,17.24c16.08,0,32.16-2.88,51.81,1s23.22,8.14,39.29,8.14,32.15-1,46.45,5.75,25,.95,33.94-4.79,21.43-31.6,55.37-32.55,73.24-13.41,84-19.15,39.29-3.82,51.81,1,9.56,20.34,19.64,22.5c17.86,3.83,53.81,14.85,63.4,20.12,0,0,23.13,7.11,26.76,106.79l2.28,28.74,3.11,26.93,3.66,33.56,4.24,33.28,4.62,31.34,3.69,21.66,4.39,22.19,4.29,17.92,3.42,11.67s5.82,20.2,14.05,22.83h0a112.06,112.06,0,0,0,37,6.68c20.77.16,4.61,2.26,89.66,1.59h0v7.66s-71.51,1.41-91.07-.93h0s-31-1.77-40.87-4.66h0s-13.51-.35-18.95-24.62h0s-6.61-23.7-7.55-28h0s-11.3-54-11.17-63.52h0l-5.85-46.5-3.93-38.52-3.06-19.65L1733.83,201l-2-8.77" fill="none" stroke="#f2a120" stroke-miterlimit="10"/><path d="M1731.84,192.24c-4.93-22.45-13.57-27.05-13.57-27.05-41.44-4-102.06-28.33-114.56-20.67s-12.51,31.59-26.8,32.55-28.58-10.53-42.87-11.49-50-3.83-66.09-3.83-25,37.34-46.45,33.51-76.81-19.14-85.74-31.6-28.58-3.83-32.16,1.92-14.29,22-42.87,8.61-80.38-42.12-87.53-35.42-30.37,32.55-62.52,23.94-75-54.58-75-54.58S974.92,77.5,941,68.88s-71.45-8.61-84,3.83-41.09,60.32-53.59,67-50,4.79-66.09,1.91-44.3,3-58.59,5.88-37.51,6.7-44.66,17.23-41.45,98.84-55.74,108.41-26.84,14.21-48.23,23.76c-22.61,10.1-47.18,36.28-47.18,36.28" fill="none" stroke="#f2a120" stroke-miterlimit="10"/></g></g><g opacity="0.33" style="isolation:isolate"><g clip-path="url(#clip-path-2)"><path d="M1920,438.39s-106.74,3.38-128.86-9.39S1752,244.5,1752,244.5,1737.1,92.18,1718.76,82s-64.14-19.79-78.43-22.66-28.58-8.62-37.51,1.91-28.58,13.41-44.66,13.41-46.45,8.61-51.8,4.78S1476,61.22,1465.27,70.8s-28.58,39.25-51.8,40.21-71.45-2.88-78.6-12.45-33-17.71-34.83-12.92-6.26,18.66-31.27,3.35-51.8-8.62-55.37-15.32-17.86-18.19-42.87-20.11-58.06-.48-68.78-6.22-21.43,9.57-46.44,10.53-46.45,0-55.38-1S950.8,43,927.58,43s-75-1-82.17,3.83S807.9,57.39,802.54,70.8s-16.08,36.38-75,31.59-110.75,61.25-135.76,90-13.17,26.77-30.17,36.7c-6,3.48-32.12,19.08-49.42,24.58l-29.23,17.21" fill="none" stroke="#f2a120" stroke-miterlimit="10"/><path d="M483,305.73s42-28.78,56.11-37c17-9.94,32.63-15.95,42-24.42,15.67-14.17,51.26-109.95,85.2-112.82s54.13-1.31,66.64-1.31,59,10.53,64.31-4.78,41.08-56.49,55.37-65.11,35.73-12.44,48.23-10.53,55.38,5.75,60.74,5.75,35.72,10.53,51.8,12.44,26.8,14.36,55.38,27.77,62.52,39.25,71.45,36.38,21.44-17.23,39.3-15.32,41.08,24.89,53.59,23.93,41.08,20.11,48.23,18.2,25-22,37.51-21.07,41.08,32.55,60.73,32.55,32.16,7.66,48.23,0,16.08-29.68,30.37-29.68,30.37,6.71,44.66,7.66,28.58-3.83,37.51-3.83,25,9.58,39.3,1,14.29-18.19,42.87-16.27c0,0,70.39,3.24,96,13.4,0,0,19.3,61.83,23.17,106,4,45.27,19.39,179.54,40.65,189.86S1920,446.05,1920,446.05" fill="none" stroke="#f2a120" stroke-miterlimit="10"/></g></g><g opacity="0.33"><g clip-path="url(#clip-path-3)"><path d="M483.84,219.14c5,5.59,65.92-41,78.65-52.7,12-11,24.3-22.36,34.27-29.48C622,118.9,654.83,86.52,684.5,85.63c9.85-.29,17.27,0,23.81.31,14.73.64,22.85,1,40.76-6.69,12-5.13,20.78-13.16,29.31-20.93,10.46-9.53,20.34-18.53,35.54-22.33,27.62-6.91,69.23-27.89,94.4-26,7.31.56,17.67,1.89,29.66,3.43C966,17,1004.3,22,1021.37,18.7c21.06-4,101.71-10.43,133.2-1.11,7.7,2.27,15,4.42,20.74,6,8.26,2.21,15.69,4,22.88,5.81q32.14,7.56,63.11,18.19c36.91,12.59,66.07,1.27,82.52-6.56,9.7-4.63-11,31.55,4.46,35.06,12.92,2.93,21.89-3.6,30.15-5.62,7.8-1.9,15.5-5.46,23.66-9.24,11.62-5.39,39.08-25.85,55.36-28.17,10.48-1.5,24.12-2.58,37.31-3.63,20.94-1.65,42.59-3.37,53.1-6.75,11.9-3.83,28.75-12.61,44.13-9.47a288,288,0,0,0,34.48,5.45c15.06,1.27,20.75,3.64,26.26,5.94,6.84,2.84,7.94,10.32,35.84,10.32,0,0,25.3.43,30.34,1.72,0,0,11.17,3.21,14.53,22.62A61.81,61.81,0,0,0,1742.38,82l6.42,14.59,7,15.85,4,12.85,7.4,31.35,5.18,26.35,6.68,38.3,3.21,20.22,2.73,23,4.35,30.6,5.28,34.28,4.14,25,5.25,28.61,5,22.09s-.25,10.5,10.55,10.88h0a171.63,171.63,0,0,0,37.14,4.56h0s56.54,3,63.49,2.39h0v8.63s-49.92-.24-63.7-1.28h0s-32.22-2-41.83-4.86h0s-11-1.12-15.17-8.19h0a201.53,201.53,0,0,1-8.58-33.85h0L1778.62,296l-9.87-83.58s-5-33.92-7.22-45c-2.71-13.61-5.62-26.7-5.62-26.7s-4-16.58-7.71-28.55-6.71-19.16-7.64-21.49l-1.81-4.26a52.1,52.1,0,0,0-8.06-11.82,104.3,104.3,0,0,0-11.78-10.69s-4.88-2.77-18.42-4.33c-29.16-3.38-49.16-10.5-56.4-13.52-5.2-2.16-10.11-4.21-23.81-5.37s-28.9-.65-39.13-2.74c-15.23-3.1-16.61,14-26.28,17.07-11.43,3.68-9.59,15.79-31,17.49-13,1-19.34,24.39-29.52,25.85-15.09,2.15-45.89,26.54-57.62,32-8.46,3.92-41.83.32-50.33,2.4-10.4,2.53-28.6-35.37-42.58-38.54s-11.53-33-18.71-29.55c-17.91,8.53-39.88,5.51-79.15-7.88q-30.59-10.51-62.45-18c-7.24-1.78-14.71-3.62-23-5.86-5.85-1.57-13.17-3.73-20.92-6-28.88-8.54-92.18,17.9-111,21.49C1010,51.84,971.24,42.6,941,38.71c-11.86-1.52-26.37-1.39-33.42-1.93-24.29-1.86-64.58-4.9-91.38,1.8C802.5,42,793,50.63,783,59.76c-8.78,8-17.85,16.26-30.58,21.72-19.56,8.39-29.5,8-44.54,7.31-6.37-.27-13.59-.58-23.08-.3-33.09,1-65,41-83.75,54.43-9.78,7-22.92,20-29.29,29.35s-39.59,35.47-39.59,35.47c-8.28,4-47,25-48.46,23.38" fill="none" stroke="#3899e8" stroke-miterlimit="10"/></g></g><path d="M483.57,235.1c1.42,1.6,36.25-15.43,51.51-21.56.75-.29,8.64-7.06,12.38-9.32,3.38-2,9.48-7,10.25-8.25,3.51-5.81,7.61-14.17,24.06-29.3,11.87-10.92,30.21-30.52,40-37.51,18.78-13.42,33.4-34.78,66.49-35.77,9.49-.28,13.24-4.85,19.61-4.58,15,.65,25,1.08,44.55-7.31C765.14,76,774.21,67.78,783,59.78c10-9.13,19.5-17.76,33.19-21.18,26.81-6.71,70.67-9.4,95-7.54,7.06.54,17.31,1.86,29.17,3.38,30.23,3.89,67.85,14.55,86.43,11,18.78-3.59,92.8-29.07,121.68-20.53,7.75,2.29,15.07,4.45,20.92,6,8.34,2.24,15.81,4.08,23,5.86a648,648,0,0,1,62.46,18c39.27,13.39,54.1,14.49,72,6,7.18-3.41,8.17,27.26,22.1,30.42s31.8,8.5,42.2,6c8.51-2.07,32.64,9.66,41.09,5.74,11.73-5.43,29.58-39,44.66-41.17,10.18-1.45,22.68-8.54,35.73-9.57,21.45-1.7,24.29-6.85,35.72-10.53,9.67-3.11,18.72-15.55,33.94-12.44,10.23,2.08,29.62-.23,43.35.94s18.61,3.2,23.81,5.36c7.25,3,10.87,18.69,40.61,18.69,27.1,0,25.57,1.15,28.88,3,1.46.83,9.11,5.74,18.68,26.57" fill="none" stroke="#3899e8" stroke-miterlimit="10" opacity="0.5"/><path d="M1920.26,422.9s-97.43-.92-108-9.86c-7.38-6.26-29.22-157.3-30-171.52,0,0-15.39-102.65-27.77-132.45C1746,88.6,1722.73,48,1718.91,46.16c-6.49-4-31.25-3.63-31.25-3.63-27.91,0-28.1-15.11-34.94-18-5.5-2.29-11.2-4.66-26.26-5.93A288.06,288.06,0,0,1,1592,13.18c-15.38-3.13-32.23,5.65-44.13,9.48-10.51,3.38-12.51,7-33.45,8.66-13.19,1-26.83,2.13-37.31,3.63-16.28,2.32-43.74,22.79-55.36,28.17-8.16,3.78-15.86,7.34-23.66,9.24-8.26,2-39.49,10.47-52.4,7.54-15.47-3.51,4.27-38.73-5.43-34.11-16.45,7.84-45.62,19.16-82.53,6.57q-30.92-10.62-63.1-18.2c-7.19-1.77-14.63-3.6-22.88-5.81-5.76-1.55-13-3.7-20.74-6-31.49-9.31-110.35-1-131.42,3-17.07,3.27-55.4-1.66-83.38-5.25-12-1.54-22.36-2.87-29.67-3.43-25.17-1.93-65,12.36-92.61,19.27-15.2,3.8-25.08,12.8-35.54,22.33-8.53,7.77-17.35,15.8-29.31,20.93-17.91,7.68-26,7.33-40.76,6.69-6.54-.28-14-.6-23.81-.3-29.66.88-63.37,27.75-88.64,45.81-10,7.12-23.6,20.77-35.55,31.76-12.73,11.72-26.53,20.17-30.26,24.34-4.44,4.94-11.81,9.39-12.54,9.78-9.48,5-25,9.94-33.93,13.68" fill="none" stroke="#3899e8" stroke-miterlimit="10" opacity="0.5"/><path d="M1737.59,83.77c1.45,3.16,3,6.68,4.47,10.6,10.29,26.49,21.91,71.48,30.32,147.61,17.89,161.88,25.35,174.09,29.35,178.39,8,8.63,72.77,12.16,118.53,11.16" fill="none" stroke="#3899e8" stroke-miterlimit="10" opacity="0.5"/></g></svg>